<?xml version="1.0" encoding="utf-8"?>
<!-- Generator: Adobe Illustrator 23.1.0, SVG Export Plug-In . SVG Version: 6.00 Build 0)  -->
<svg version="1.1" id="Camada_1" xmlns="http://www.w3.org/2000/svg" xmlns:xlink="http://www.w3.org/1999/xlink" x="0px" y="0px"
	 viewBox="0 0 98.9 47.5" style="enable-background:new 0 0 98.9 47.5;" xml:space="preserve">
<g>
	<path fill="white" d="M34.8,11.5c1.9-0.1,3.8-0.1,5.7-0.1c4.6-0.1,9.2-0.1,13.7-0.5c0.3,0,0.5,0.2,0.5,0.5c0.5,4.6,0.7,8.5,0.7,12.4
		c0,3.9-0.2,7.9-0.7,12.4c0,0.3-0.3,0.5-0.5,0.5l0,0c-4.5-0.4-9.2-0.5-13.7-0.5c-1.9,0-3.8-0.1-5.7-0.1c-0.3,0-0.5-0.2-0.5-0.5
		c-0.1-4-0.1-7.9-0.1-11.8c0-3.9,0-7.8,0.1-11.8C34.3,11.7,34.5,11.5,34.8,11.5L34.8,11.5z M40.5,12.4c-1.7,0-3.5,0-5.2,0.1
		c0,3.6-0.1,7.4-0.1,11.3c0,3.9,0,7.7,0.1,11.3c1.7,0,3.5,0.1,5.2,0.1c4.5,0,8.9,0.1,13.4,0.5c0.4-4.3,0.6-8.1,0.6-11.8
		c0-3.8-0.2-7.6-0.6-11.9C49.4,12.3,44.9,12.3,40.5,12.4L40.5,12.4z M70.8,40.8l-12.9-2.4c-6.1-0.6-12-1-17.7-1.2
		c-5.7-0.2-11.2-0.1-16.4,0.2h-0.1c-2,0-4.2,0.2-6.3,0.4c-2.2,0.2-4.3,0.4-6.1,0.4c-0.2,0-0.3-0.1-0.4-0.3
		c-2.4-3.9-3.7-9.1-3.7-14.3c0-5.2,1.2-10.4,3.6-14.3c0.1-0.2,0.3-0.3,0.5-0.2c1.9,0,3.9,0.2,6.1,0.4c2.1,0.2,4.3,0.4,6.3,0.4l0,0
		c5.7,0.1,11.4,0.1,17.1-0.1c5.6-0.2,11.3-0.5,17-0.9l12.9-2.4c0.1-0.3,0.3-0.5,0.5-0.7c0.3-0.2,0.7-0.3,1.2-0.4
		c0.1,0,0.3-0.1,0.5-0.1c1.7-0.1,3.6-0.1,5.5,0.1C80.4,5.8,82.3,6,84,6.2c2.2,0.3,4.2,0.6,5.8,1l0.5,0.1c-0.5-0.3-0.9-0.5-1.4-0.7
		c0,0-0.1,0-0.1,0c-3.7-2.4-7.7-2.2-12.4-2c-1.3,0.1-2.6,0.1-4,0.1h-5.9c0,0.1,0,0.1,0,0.1c-0.1,0.3-0.2,0.4-0.4,0.6v0h2.9
		c0.2,0,0.5,0.1,0.5,0.4c0.1,0.3-0.1,0.5-0.4,0.6l-7.6,1.6c-5.2,1.1-9.9,1.2-14.9,1.2c-1.2,0-2.4,0-3.7,0.1
		c-3.3,0.1-6.6,0.2-9.8,0.3c-2.8-0.2-5.5-0.4-8-0.8c-2.5-0.4-4.8-0.9-6.8-1.5c-0.2-0.1-0.3-0.2-0.4-0.4c0-0.3,0.2-0.5,0.4-0.6
		C19.8,6.2,21.4,6,23,5.9c1.6-0.1,3.2-0.2,4.8-0.3C37,5.2,46.7,5.3,56.2,5.4c2.2,0,4.4,0,6.6,0.1l0-0.3l-0.2-0.6
		C58.8,4.5,55,4.4,51.3,4.3L27.8,4.4c-1.1,0-2.3,0-3.5-0.1c-2.5-0.1-5-0.2-7.1,0.1c-0.8,0.1-1.3,0.2-1.7,0.3C15,4.9,14.6,5.1,14,5.4
		c-0.1,0-0.1,0.1-0.2,0.1c-0.9,0.1-2,0.2-3,0.4C9.9,6.1,9.2,6.3,8.5,6.5C7.4,6.9,6.5,7.4,5.7,8c-0.8,0.6-1.4,1.4-2.1,2.4
		c-1.2,1.8-1.8,4.2-2.1,6.6C1.1,19.5,1,22,1,23.8c0,1.8,0.1,4.2,0.4,6.7c0.3,2.4,1,4.8,2.1,6.6c0.7,1,1.4,1.8,2.1,2.4
		c0.8,0.6,1.7,1.1,2.8,1.5c0.7,0.3,1.4,0.5,2.3,0.6c1,0.2,2.1,0.3,3,0.4c0.1,0,0.1,0,0.2,0.1c0.7,0.3,1,0.5,1.5,0.7
		c0.4,0.1,0.9,0.2,1.7,0.3c2.1,0.3,4.7,0.2,7.1,0.1c1.2,0,2.5-0.1,3.6-0.1l23.4,0.1l9.1-0.2l2.2-0.1l0.2-0.6l0-0.3
		c-2.3,0-4.6,0.1-6.9,0.1c-3.6,0-7.2,0.1-10.8,0.1h-0.1c-5.8,0-11.7-0.1-17.3-0.3c-1.6-0.1-3.2-0.2-4.8-0.3
		c-1.6-0.1-3.1-0.3-4.6-0.5c-0.3,0-0.5-0.3-0.4-0.6c0-0.2,0.2-0.4,0.4-0.4c2-0.7,4.3-1.2,6.8-1.5c2.5-0.4,5.2-0.6,8-0.8
		c3.3,0.1,6.6,0.2,9.8,0.3c1.3,0,2.5,0.1,3.7,0.1c5,0.1,9.8,0.2,14.9,1.3l7.6,1.6c0.3,0.1,0.4,0.3,0.4,0.6s-0.3,0.4-0.5,0.4h-2.9v0
		c0.2,0.1,0.3,0.3,0.4,0.6c0,0.1,0,0.1,0,0.1h5.8c1.4,0,2.8,0.1,4.1,0.1c4.8,0.2,8.8,0.4,12.4-2l0.1,0c0.5-0.2,1-0.5,1.4-0.7
		l-0.5,0.1c-1.6,0.4-3.5,0.7-5.8,1c-1.8,0.3-3.7,0.5-5.5,0.6C76.6,42,74.7,42.1,73,42c-0.2,0-0.3,0-0.5-0.1
		c-0.5-0.1-0.9-0.2-1.2-0.4C71.1,41.3,70.9,41.1,70.8,40.8L70.8,40.8z M58.6,37.5l12.5,2.3c2.5-3.5,3.8-9.8,3.8-16.1
		s-1.2-12.6-3.8-16.1L58.6,10c0.8,4.1,1.2,9,1.2,13.8C59.8,28.6,59.4,33.4,58.6,37.5L58.6,37.5z M57.6,37.4c0.8-4,1.2-8.8,1.2-13.6
		c0-4.8-0.4-9.6-1.2-13.7c-5.5,0.4-11.1,0.7-16.6,0.8c-5.6,0.2-11.2,0.2-16.8,0.1c-1.5,3.4-2.3,8.1-2.3,12.7s0.8,9.3,2.3,12.7
		c5.1-0.3,10.5-0.4,16.1-0.2C45.8,36.4,51.6,36.8,57.6,37.4L57.6,37.4z M72.4,7.8c2.3,3.8,3.5,9.9,3.5,16c0,6.1-1.2,12.2-3.5,15.9
		l0.1-0.1c0.4-0.3,0.9-0.7,1.3-1.4c2-2.9,2.9-8.7,2.9-14.5c0-5.8-1-11.6-2.9-14.5C73.3,8.6,72.9,8.1,72.4,7.8L72.4,7.8z M17.4,10.6
		c-2-0.2-4-0.4-5.7-0.4c-2.2,3.7-3.3,8.6-3.3,13.5s1.1,9.8,3.3,13.5c1.8,0,3.7-0.2,5.7-0.4c1.9-0.2,3.8-0.3,5.7-0.4
		c-1.4-3.5-2.2-8.1-2.2-12.7c0-4.6,0.7-9.3,2.2-12.8C21.2,10.9,19.3,10.7,17.4,10.6L17.4,10.6z M77.3,10.3c-0.3,0-0.5-0.3-0.4-0.5
		c0-0.3,0.3-0.5,0.5-0.4c3.8,0.6,7.3,1.2,10.6,2.1c2.9,0.7,5.5,1.5,8.1,2.4c-0.7-1.5-1.6-2.8-2.7-4c-0.2-0.2-0.4-0.4-0.6-0.6
		c-0.7-0.4-1.8-0.8-3.2-1.1c-1.6-0.3-3.5-0.7-5.7-1c-1.7-0.2-3.6-0.4-5.4-0.6c-1.9-0.1-3.7-0.2-5.4-0.1c-0.1,0-0.3,0-0.4,0
		c-0.2,0-0.3,0.1-0.5,0.1C72.5,6.7,72.8,6.9,73,7c0.5,0.3,1,0.9,1.6,1.6c2.1,3.1,3.1,9.1,3.1,15.1c0,6-1,11.9-3.1,15.1
		c-0.5,0.8-1,1.3-1.6,1.6c-0.3,0.2-0.5,0.3-0.8,0.4c0.1,0.1,0.3,0.1,0.5,0.1c0.1,0,0.3,0,0.4,0.1c1.7,0.1,3.5,0,5.4-0.1
		s3.7-0.3,5.4-0.6c2.2-0.3,4.2-0.6,5.7-1c1.4-0.3,2.5-0.7,3.2-1c0.2-0.2,0.4-0.4,0.6-0.6c1.1-1.2,2-2.6,2.7-4
		c-2.5,0.9-5.2,1.7-8.1,2.4c-3.3,0.8-6.8,1.5-10.6,2.1c-0.3,0.1-0.5-0.1-0.5-0.4c-0.1-0.3,0.1-0.5,0.4-0.6c3.8-0.6,7.3-1.2,10.5-2
		c3.1-0.8,6-1.7,8.8-2.6c0.1-0.3,0.1-0.5,0.2-0.7c0.1-0.5,0.1-1.1,0.1-1.7c0.1-2,0.1-4.1,0.1-6.2c0-2,0-4.2-0.1-6.3
		c0-0.7-0.1-1.2-0.1-1.7c0-0.3-0.1-0.5-0.2-0.7c-2.7-1-5.6-1.8-8.8-2.6C84.6,11.6,81.1,10.9,77.3,10.3L77.3,10.3z M25.4,23.4h-1.3
		c0,0,0,0,0,0l0,0V24c0,0,0,0,0,0s0,0,0,0h1.3l0,0c0,0,0,0,0,0L25.4,23.4L25.4,23.4L25.4,23.4L25.4,23.4z M24.1,22.5h1.3
		c0.3,0,0.5,0.1,0.7,0.3c0.2,0.2,0.3,0.5,0.3,0.7V24c0,0.3-0.1,0.5-0.3,0.7c-0.2,0.2-0.5,0.3-0.7,0.3h-1.3c-0.3,0-0.5-0.1-0.7-0.3
		c-0.2-0.2-0.3-0.5-0.3-0.7v-0.5c0-0.3,0.1-0.5,0.3-0.7C23.6,22.6,23.9,22.5,24.1,22.5L24.1,22.5z M63.2,6.4c-2.3,0-4.7,0-7-0.1
		c-3.6,0-7.2-0.1-10.8-0.1l-1.5,2.1c0.9,0,1.8,0,2.7-0.1c5-0.1,9.7-0.1,14.7-1.2l4-0.9c-0.1-0.1-0.1-0.1-0.1-0.3
		c0-0.1,0-0.2-0.1-0.3c-0.2,0-0.4,0-0.6,0c-0.3,0-0.5-0.1-0.7-0.1l0,0.3C63.7,6.2,63.5,6.4,63.2,6.4L63.2,6.4z M44.2,6.3
		c-5.5,0-11,0.1-16.4,0.3c-0.7,0-1.4,0.1-2.2,0.1l1.5,1.4c1.9,0.2,3.9,0.4,6,0.5l9.5-0.3L44.2,6.3z M24.3,6.8L23,6.9
		c-0.7,0.1-1.4,0.1-2.1,0.2c1.3,0.3,2.8,0.6,4.3,0.8l0.3,0L24.3,6.8z M55.9,41.1c2.4,0,4.9,0,7.3-0.1h0c0.3,0,0.5,0.2,0.5,0.5l0,0.4
		c0.2-0.1,0.5-0.1,0.7-0.1c0.2,0,0.4,0,0.6,0h0c0-0.1,0-0.2,0.1-0.3c0-0.1,0-0.2,0.1-0.3l-4-0.9c-5-1.1-9.7-1.2-14.7-1.2
		c-0.9,0-1.8,0-2.7-0.1l1.5,2.1C48.9,41.2,52.4,41.2,55.9,41.1L55.9,41.1z M27.8,40.9c5.4,0.2,10.9,0.3,16.4,0.3l-1.5-2.1l-9.5-0.3
		c-2.1,0.1-4.1,0.3-6,0.5l-1.5,1.4C26.4,40.8,27.1,40.9,27.8,40.9L27.8,40.9z M23,40.6l1.2,0.1l1.2-1.1l-0.3,0
		c-1.5,0.2-3,0.5-4.3,0.8C21.6,40.5,22.3,40.6,23,40.6L23,40.6z M65.5,42.9c0,0-0.1-0.1-0.1-0.1c-0.3-0.1-0.5-0.1-0.8-0.1
		c-0.2,0-0.3,0-0.5,0.1c-0.1,0.7-0.2,1.4-0.5,2.1c-0.1,0.4-0.3,0.8-0.5,1.2l0.1,0c1-0.6,1.4-1.4,2-2.4l0-0.1
		c0.1-0.2,0.1-0.3,0.2-0.4l0-0.1C65.5,43,65.5,43,65.5,42.9L65.5,42.9z M66.3,43.8l-0.1,0.3c-0.6,1.1-1.1,2.1-2.4,2.8
		c-0.2,0.1-0.5,0.3-0.7,0.3c-0.2,0.1-0.5,0.2-0.7,0.2c-0.1,0-0.2,0-0.3,0l0,0c-0.1,0-0.2-0.1-0.3-0.1c-0.2-0.1-0.3-0.3-0.3-0.5
		c-0.1-0.5,0.4-1.8,0.8-2.9c-11.5,0.3-22.9,0.2-34.4,0.1c-1.1,0-2.3,0-3.5,0.1c-2.5,0.1-5.1,0.2-7.3-0.1c-0.9-0.1-1.4-0.2-1.9-0.4
		c-0.5-0.2-0.9-0.4-1.5-0.7c-0.9-0.1-2-0.2-3-0.4c-0.9-0.2-1.7-0.4-2.4-0.7c-1.2-0.5-2.2-1-3.1-1.7c-0.9-0.7-1.6-1.5-2.4-2.6
		c-1.2-1.9-1.9-4.5-2.3-7.1c-0.4-2.5-0.4-5-0.5-6.8v0c0-1.8,0.1-4.3,0.5-6.8c0.3-2.6,1-5.1,2.3-7c0.7-1.1,1.5-2,2.4-2.6
		c0.9-0.7,1.8-1.2,3.1-1.7c0.7-0.3,1.6-0.5,2.4-0.7c1-0.2,2.1-0.3,3-0.4c0.7-0.3,1-0.5,1.5-0.7c0.5-0.2,1-0.3,1.9-0.4
		c2.2-0.3,4.8-0.2,7.3-0.1c1.2,0.1,2.4,0.1,3.5,0.1c11.5,0,22.9-0.2,34.4,0.1c-0.4-1.1-0.9-2.4-0.8-2.9c0-0.2,0.1-0.4,0.3-0.5
		C61.8,0.1,62,0.1,62.1,0c0,0,0.1,0,0.1,0c0.1,0,0.1,0,0.2,0c0.3,0.1,0.5,0.1,0.7,0.2c0.3,0.1,0.5,0.2,0.7,0.3l0,0
		c1.2,0.7,1.8,1.6,2.3,2.7l0.1,0.3h6.1c1.4,0,2.7-0.1,4-0.1c4.8-0.2,8.9-0.4,12.8,2h0.1c3.3,0.5,3.7,1,5.9,3.6l0.1,0.2
		c0.9,1.2,1.7,2.4,2.2,3.5c0.4,1,0.6,1.9,0.4,2.8l0.5,2.1l0.1,0.1c0.3,0.4,0.4,0.5,0.5,0.8c0.1,0.2,0.1,0.4,0.1,0.8
		c0,2.9,0,5.8,0,8.7c0,0.4,0,0.6-0.1,0.8c-0.1,0.3-0.2,0.4-0.5,0.8l-0.1,0.1l-0.5,2.2c0.2,0.8,0,1.8-0.4,2.7
		c-0.5,1.1-1.2,2.3-2.2,3.5L95,38.3c-2.2,2.7-2.5,3.1-5.9,3.6h-0.1c-3.9,2.4-7.9,2.2-12.8,2c-1.3-0.1-2.6-0.1-4-0.1H66.3z M65.5,4.4
		C65.5,4.3,65.5,4.3,65.5,4.4c-0.1-0.2-0.1-0.3-0.2-0.5l0-0.1c-0.5-1-0.9-1.8-1.9-2.4l-0.1-0.1c0.2,0.4,0.3,0.8,0.5,1.2
		c0.2,0.7,0.4,1.4,0.5,2.1c0.1,0,0.3,0.1,0.5,0.1c0.3,0,0.5,0,0.8-0.1l0,0c0.1,0,0.1-0.1,0.1-0.1C65.5,4.5,65.5,4.5,65.5,4.4
		L65.5,4.4z M97.9,18.9l0,1.1v-0.6C97.9,19.1,97.9,19,97.9,18.9L97.9,18.9z M97.9,27.6l0,1l0,0c0-0.1,0-0.2,0-0.5V27.6z"/>
</g>
</svg>
